<svg width="53" height="53" viewBox="0 0 53 53" fill="none" xmlns="http://www.w3.org/2000/svg">
<g id="bxs-hand-right 1">
<path id="Vector" d="M44.1667 17.6666H17.6667L20.3432 10.9753C20.567 10.4164 20.6741 9.81752 20.658 9.21562C20.6419 8.61372 20.5029 8.02147 20.2496 7.47525C19.9962 6.92904 19.6339 6.44039 19.1848 6.03934C18.7356 5.63829 18.2093 5.33331 17.638 5.14312L16.8871 4.89358C16.4658 4.75284 16.0118 4.74269 15.5847 4.86446C15.1575 4.98623 14.7771 5.23423 14.4933 5.57596L4.92681 17.0527C4.59696 17.4498 4.41649 17.9498 4.41669 18.466V41.9582C4.41669 43.1296 4.88201 44.253 5.7103 45.0813C6.53858 45.9096 7.66198 46.3749 8.83335 46.3749H24.7554C25.842 46.3745 26.8903 45.9736 27.6999 45.2488C28.5094 44.524 29.0233 43.5262 29.1434 42.4463L30.9167 26.4999H44.1667C45.3381 26.4999 46.4615 26.0346 47.2897 25.2063C48.118 24.378 48.5834 23.2546 48.5834 22.0832C48.5834 20.9119 48.118 19.7885 47.2897 18.9602C46.4615 18.1319 45.3381 17.6666 44.1667 17.6666Z" fill="white"/>
</g>
</svg>
